<svg width="28" height="23" viewBox="0 0 28 23" fill="none" xmlns="http://www.w3.org/2000/svg">
<path fill-rule="evenodd" clip-rule="evenodd" d="M0 21.25C0 20.9185 0.131696 20.6005 0.366117 20.3661C0.600537 20.1317 0.918479 20 1.25 20H26.25C26.5815 20 26.8995 20.1317 27.1339 20.3661C27.3683 20.6005 27.5 20.9185 27.5 21.25C27.5 21.5815 27.3683 21.8995 27.1339 22.1339C26.8995 22.3683 26.5815 22.5 26.25 22.5H1.25C0.918479 22.5 0.600537 22.3683 0.366117 22.1339C0.131696 21.8995 0 21.5815 0 21.25ZM0 11.25C0 10.9185 0.131696 10.6005 0.366117 10.3661C0.600537 10.1317 0.918479 10 1.25 10H26.25C26.5815 10 26.8995 10.1317 27.1339 10.3661C27.3683 10.6005 27.5 10.9185 27.5 11.25C27.5 11.5815 27.3683 11.8995 27.1339 12.1339C26.8995 12.3683 26.5815 12.5 26.25 12.5H1.25C0.918479 12.5 0.600537 12.3683 0.366117 12.1339C0.131696 11.8995 0 11.5815 0 11.25ZM0 1.25C0 0.918479 0.131696 0.600537 0.366117 0.366117C0.600537 0.131696 0.918479 0 1.25 0H26.25C26.5815 0 26.8995 0.131696 27.1339 0.366117C27.3683 0.600537 27.5 0.918479 27.5 1.25C27.5 1.58152 27.3683 1.89946 27.1339 2.13388C26.8995 2.3683 26.5815 2.5 26.25 2.5H1.25C0.918479 2.5 0.600537 2.3683 0.366117 2.13388C0.131696 1.89946 0 1.58152 0 1.25Z" fill="white"/>
</svg>
