<svg width="42" height="42" viewBox="0 0 42 42" fill="none" xmlns="http://www.w3.org/2000/svg">
<rect width="42" height="42" fill="white"/>
<g clip-path="url(#clip0_63_300)">
<path d="M27.9312 14.6338C26.6345 14.0382 25.266 13.6134 23.86 13.37C23.8472 13.3679 23.8341 13.3697 23.8225 13.3753C23.8109 13.3809 23.8012 13.39 23.795 13.4013C23.6187 13.7138 23.4237 14.1225 23.2875 14.4425C21.772 14.2127 20.2305 14.2127 18.715 14.4425C18.5636 14.0857 18.3917 13.7381 18.2 13.4013C18.1937 13.39 18.1841 13.3809 18.1724 13.3753C18.1608 13.3697 18.1477 13.3679 18.135 13.37C16.7287 13.6125 15.36 14.0375 14.0637 14.6338C14.0526 14.6379 14.0433 14.6459 14.0375 14.6563C11.445 18.53 10.7337 22.3088 11.0825 26.04C11.085 26.0583 11.0937 26.0738 11.1087 26.0863C12.6187 27.204 14.3072 28.0578 16.1025 28.6113C16.1151 28.6153 16.1288 28.6151 16.1414 28.6108C16.1539 28.6066 16.1648 28.5984 16.1725 28.5875C16.5583 28.0625 16.8991 27.5088 17.195 26.9263C17.2011 26.9143 17.2032 26.9006 17.201 26.8873C17.1987 26.874 17.1922 26.8618 17.1825 26.8525L17.16 26.8388C16.6217 26.6312 16.1001 26.3826 15.6 26.095C15.586 26.0871 15.5756 26.0741 15.571 26.0588C15.5663 26.0434 15.5677 26.0268 15.575 26.0125L15.5937 25.9888C15.6996 25.9096 15.8029 25.8283 15.9037 25.745C15.9126 25.7379 15.9232 25.7333 15.9344 25.7318C15.9456 25.7303 15.957 25.7318 15.9675 25.7363C19.2412 27.2313 22.785 27.2313 26.0187 25.7363C26.0295 25.7313 26.0414 25.7295 26.0531 25.731C26.0648 25.7326 26.0759 25.7374 26.085 25.745C26.1858 25.8283 26.2891 25.9096 26.395 25.9888C26.4038 25.9948 26.4109 26.0029 26.4156 26.0125C26.4204 26.022 26.4226 26.0326 26.4221 26.0433C26.4216 26.0539 26.4184 26.0643 26.4128 26.0733C26.4071 26.0824 26.3993 26.0898 26.39 26.095C25.892 26.3871 25.3696 26.6355 24.8287 26.8375C24.8201 26.8406 24.8123 26.8456 24.8058 26.8521C24.7993 26.8586 24.7943 26.8664 24.7912 26.875C24.7882 26.8833 24.7869 26.8922 24.7876 26.901C24.7882 26.9099 24.7907 26.9185 24.795 26.9263C25.095 27.5075 25.4387 28.0625 25.8162 28.5875C25.8238 28.5984 25.8347 28.6066 25.8473 28.6108C25.8599 28.6151 25.8735 28.6153 25.8862 28.6113C27.685 28.0608 29.3765 27.2069 30.8875 26.0863C30.895 26.081 30.9012 26.0741 30.9058 26.0661C30.9103 26.0581 30.913 26.0492 30.9137 26.04C31.3312 21.7263 30.215 17.9788 27.9562 14.6575C27.9543 14.6518 27.951 14.6467 27.9466 14.6426C27.9423 14.6385 27.937 14.6354 27.9312 14.6338ZM17.6837 23.7675C16.6975 23.7675 15.8862 22.8625 15.8862 21.7525C15.8862 20.6425 16.6825 19.7363 17.6837 19.7363C18.6925 19.7363 19.4962 20.6488 19.4812 21.7525C19.4812 22.8625 18.685 23.7675 17.6837 23.7675ZM24.3287 23.7675C23.3437 23.7675 22.5312 22.8625 22.5312 21.7525C22.5312 20.6425 23.3275 19.7363 24.3287 19.7363C25.3375 19.7363 26.1425 20.6488 26.1262 21.7525C26.1262 22.8625 25.3375 23.7675 24.3287 23.7675Z" fill="#111827"/>
</g>
<defs>
<clipPath id="clip0_63_300">
<rect width="20" height="20" fill="white" transform="translate(11 11)"/>
</clipPath>
</defs>
</svg>
