<svg width="42" height="42" viewBox="0 0 42 42" fill="none" xmlns="http://www.w3.org/2000/svg">
<rect width="42" height="42" fill="white"/>
<g clip-path="url(#clip0_63_289)">
<path d="M21 11C18.2863 11 17.945 11.0125 16.8787 11.06C15.8125 11.11 15.0862 11.2775 14.45 11.525C13.7823 11.7754 13.1777 12.1692 12.6788 12.6788C12.1692 13.1777 11.7754 13.7823 11.525 14.45C11.2775 15.085 11.1088 15.8125 11.06 16.875C11.0125 17.9437 11 18.2838 11 21.0013C11 23.7163 11.0125 24.0563 11.06 25.1225C11.11 26.1875 11.2775 26.9137 11.525 27.55C11.7812 28.2075 12.1225 28.765 12.6788 29.3212C13.2338 29.8775 13.7912 30.22 14.4488 30.475C15.0863 30.7225 15.8113 30.8912 16.8763 30.94C17.9438 30.9875 18.2838 31 21 31C23.7163 31 24.055 30.9875 25.1225 30.94C26.1863 30.89 26.915 30.7225 27.5513 30.475C28.2185 30.2244 28.8227 29.8306 29.3212 29.3212C29.8775 28.765 30.2188 28.2075 30.475 27.55C30.7213 26.9137 30.89 26.1875 30.94 25.1225C30.9875 24.0563 31 23.7163 31 21C31 18.2838 30.9875 17.9438 30.94 16.8763C30.89 15.8125 30.7213 15.085 30.475 14.45C30.2246 13.7823 29.8308 13.1777 29.3212 12.6788C28.8223 12.1692 28.2177 11.7754 27.55 11.525C26.9125 11.2775 26.185 11.1088 25.1213 11.06C24.0538 11.0125 23.715 11 20.9975 11H21ZM20.1038 12.8025H21.0013C23.6713 12.8025 23.9875 12.8113 25.0413 12.86C26.0162 12.9038 26.5462 13.0675 26.8988 13.2038C27.365 13.385 27.6987 13.6025 28.0487 13.9525C28.3988 14.3025 28.615 14.635 28.7963 15.1025C28.9338 15.4538 29.0963 15.9838 29.14 16.9588C29.1887 18.0125 29.1987 18.3288 29.1987 20.9975C29.1987 23.6663 29.1887 23.9837 29.14 25.0375C29.0963 26.0125 28.9325 26.5413 28.7963 26.8938C28.6348 27.3274 28.3791 27.7197 28.0475 28.0425C27.6975 28.3925 27.365 28.6088 26.8975 28.79C26.5475 28.9275 26.0175 29.09 25.0413 29.135C23.9875 29.1825 23.6713 29.1938 21.0013 29.1938C18.3313 29.1938 18.0138 29.1825 16.96 29.135C15.985 29.09 15.4563 28.9275 15.1038 28.79C14.6698 28.6291 14.277 28.3738 13.9537 28.0425C13.6216 27.7195 13.3654 27.3267 13.2038 26.8925C13.0675 26.5412 12.9038 26.0113 12.86 25.0363C12.8125 23.9825 12.8025 23.6663 12.8025 20.995C12.8025 18.3237 12.8125 18.01 12.86 16.9562C12.905 15.9812 13.0675 15.4513 13.205 15.0988C13.3863 14.6325 13.6037 14.2987 13.9537 13.9488C14.3037 13.5987 14.6363 13.3825 15.1038 13.2013C15.4563 13.0638 15.985 12.9013 16.96 12.8563C17.8825 12.8138 18.24 12.8013 20.1038 12.8V12.8025ZM26.3387 14.4625C26.1812 14.4625 26.0251 14.4935 25.8795 14.5538C25.7339 14.6142 25.6017 14.7025 25.4902 14.814C25.3788 14.9254 25.2904 15.0577 25.2301 15.2033C25.1698 15.3489 25.1388 15.5049 25.1388 15.6625C25.1388 15.8201 25.1698 15.9761 25.2301 16.1217C25.2904 16.2673 25.3788 16.3996 25.4902 16.511C25.6017 16.6225 25.7339 16.7108 25.8795 16.7712C26.0251 16.8315 26.1812 16.8625 26.3387 16.8625C26.657 16.8625 26.9622 16.7361 27.1873 16.511C27.4123 16.286 27.5387 15.9808 27.5387 15.6625C27.5387 15.3442 27.4123 15.039 27.1873 14.814C26.9622 14.5889 26.657 14.4625 26.3387 14.4625ZM21.0013 15.865C20.3201 15.8544 19.6436 15.9794 19.0112 16.2327C18.3788 16.486 17.8031 16.8626 17.3177 17.3405C16.8322 17.8185 16.4467 18.3882 16.1836 19.0166C15.9204 19.6449 15.7849 20.3194 15.7849 21.0006C15.7849 21.6819 15.9204 22.3563 16.1836 22.9847C16.4467 23.613 16.8322 24.1828 17.3177 24.6607C17.8031 25.1387 18.3788 25.5153 19.0112 25.7686C19.6436 26.0219 20.3201 26.1469 21.0013 26.1363C22.3494 26.1152 23.6353 25.5649 24.5812 24.6041C25.5272 23.6432 26.0574 22.349 26.0574 21.0006C26.0574 19.6523 25.5272 18.358 24.5812 17.3972C23.6353 16.4364 22.3494 15.886 21.0013 15.865ZM21.0013 17.6663C21.439 17.6663 21.8726 17.7525 22.277 17.92C22.6815 18.0876 23.049 18.3331 23.3586 18.6427C23.6681 18.9523 23.9137 19.3198 24.0812 19.7242C24.2488 20.1287 24.335 20.5622 24.335 21C24.335 21.4378 24.2488 21.8713 24.0812 22.2758C23.9137 22.6802 23.6681 23.0477 23.3586 23.3573C23.049 23.6669 22.6815 23.9124 22.277 24.08C21.8726 24.2475 21.439 24.3337 21.0013 24.3337C20.1171 24.3337 19.2691 23.9825 18.6439 23.3573C18.0187 22.7321 17.6675 21.8842 17.6675 21C17.6675 20.1158 18.0187 19.2679 18.6439 18.6427C19.2691 18.0175 20.1171 17.6663 21.0013 17.6663Z" fill="#111827"/>
</g>
<defs>
<clipPath id="clip0_63_289">
<rect width="20" height="20" fill="white" transform="translate(11 11)"/>
</clipPath>
</defs>
</svg>
