<svg width="42" height="42" viewBox="0 0 42 42" fill="none" xmlns="http://www.w3.org/2000/svg">
<rect width="42" height="42" fill="white"/>
<g clip-path="url(#clip0_63_290)">
<path d="M11 12.4325C11 11.6413 11.6575 11 12.4688 11H29.5312C30.3425 11 31 11.6413 31 12.4325V29.5675C31 30.3587 30.3425 31 29.5312 31H12.4688C11.6575 31 11 30.3587 11 29.5675V12.4325ZM17.1788 27.7425V18.7113H14.1775V27.7425H17.1788ZM15.6788 17.4775C16.725 17.4775 17.3762 16.785 17.3762 15.9175C17.3575 15.0312 16.7263 14.3575 15.6988 14.3575C14.6713 14.3575 14 15.0325 14 15.9175C14 16.785 14.6512 17.4775 15.6588 17.4775H15.6788ZM21.8138 27.7425V22.6988C21.8138 22.4288 21.8337 22.1587 21.9137 21.9662C22.13 21.4275 22.6238 20.8687 23.4538 20.8687C24.54 20.8687 24.9738 21.6962 24.9738 22.9113V27.7425H27.975V22.5625C27.975 19.7875 26.495 18.4975 24.52 18.4975C22.9275 18.4975 22.2137 19.3725 21.8138 19.9888V20.02H21.7938L21.8138 19.9888V18.7113H18.8137C18.8512 19.5588 18.8137 27.7425 18.8137 27.7425H21.8138Z" fill="#111827"/>
</g>
<defs>
<clipPath id="clip0_63_290">
<rect width="20" height="20" fill="white" transform="translate(11 11)"/>
</clipPath>
</defs>
</svg>
