<svg viewBox="0 0 158 35" fill="none" xmlns="http://www.w3.org/2000/svg">
<path d="M51.2389 13.489C51.1962 13.0202 51.0066 12.6559 50.67 12.3959C50.3376 12.1317 49.8624 11.9996 49.2445 11.9996C48.8354 11.9996 48.4945 12.0529 48.2218 12.1594C47.9491 12.2659 47.7445 12.413 47.6082 12.6005C47.4718 12.7837 47.4015 12.9946 47.3972 13.2333C47.3887 13.4293 47.4271 13.6019 47.5123 13.751C47.6018 13.9002 47.7296 14.0323 47.8958 14.1473C48.0663 14.2581 48.2708 14.3561 48.5094 14.4414C48.7481 14.5266 49.0165 14.6012 49.3148 14.6651L50.4398 14.9208C51.0876 15.0614 51.6586 15.2489 52.1529 15.4833C52.6515 15.7177 53.0691 15.9968 53.4058 16.3206C53.7467 16.6445 54.0045 17.0174 54.1792 17.4392C54.3539 17.8611 54.4434 18.3341 54.4477 18.8583C54.4434 19.685 54.2346 20.3945 53.8212 20.9868C53.4079 21.5792 52.8134 22.033 52.0379 22.3483C51.2665 22.6637 50.3354 22.8213 49.2445 22.8213C48.1494 22.8213 47.1948 22.6573 46.3809 22.3292C45.567 22.001 44.9342 21.5025 44.4825 20.8334C44.0308 20.1644 43.7985 19.3185 43.7857 18.2958H46.8156C46.8411 18.7177 46.954 19.0692 47.1543 19.3505C47.3546 19.6317 47.6295 19.8448 47.9789 19.9897C48.3326 20.1346 48.7417 20.207 49.2062 20.207C49.6323 20.207 49.9945 20.1495 50.2928 20.0344C50.5954 19.9194 50.8276 19.7596 50.9896 19.555C51.1515 19.3505 51.2346 19.1161 51.2389 18.8519C51.2346 18.6047 51.1579 18.3938 51.0087 18.2191C50.8596 18.0401 50.6295 17.8867 50.3184 17.7588C50.0116 17.6267 49.6195 17.5053 49.1423 17.3945L47.7744 17.0749C46.6408 16.815 45.7481 16.3952 45.0961 15.8157C44.4441 15.2319 44.1202 14.4435 44.1245 13.4506C44.1202 12.6409 44.3376 11.9314 44.7765 11.3221C45.2154 10.7127 45.8227 10.2375 46.5982 9.89663C47.3738 9.55572 48.258 9.38526 49.2509 9.38526C50.2651 9.38526 51.1451 9.55785 51.8908 9.90302C52.6408 10.2439 53.2225 10.7233 53.6359 11.3412C54.0492 11.9591 54.2602 12.675 54.2687 13.489H51.2389ZM61.3376 12.837V15.1381H55.1437V12.837H61.3376ZM56.4413 10.4847H59.567V19.5678C59.567 19.7596 59.5968 19.9151 59.6565 20.0344C59.7204 20.1495 59.812 20.2326 59.9313 20.2837C60.0506 20.3306 60.1934 20.354 60.3596 20.354C60.4789 20.354 60.6046 20.3434 60.7367 20.3221C60.8731 20.2965 60.9754 20.2752 61.0435 20.2581L61.5165 22.5145C61.3674 22.5571 61.1565 22.6104 60.8837 22.6743C60.6153 22.7382 60.2935 22.7787 59.9185 22.7958C59.1856 22.8299 58.557 22.7446 58.0329 22.5401C57.513 22.3313 57.1146 22.0074 56.8376 21.5685C56.5648 21.1296 56.4327 20.5777 56.4413 19.913V10.4847ZM65.4501 22.8213C64.8237 22.8213 64.2676 22.7169 63.7818 22.5081C63.3003 22.2951 62.9189 21.9755 62.6376 21.5493C62.3607 21.1189 62.2222 20.5799 62.2222 19.9321C62.2222 19.3867 62.318 18.9265 62.5098 18.5515C62.7016 18.1765 62.9658 17.8718 63.3024 17.6374C63.6391 17.403 64.0268 17.2262 64.4658 17.1069C64.9047 16.9833 65.3734 16.9002 65.872 16.8576C66.4303 16.8064 66.8798 16.7532 67.2207 16.6978C67.5616 16.6381 67.8088 16.555 67.9622 16.4485C68.1199 16.3377 68.1987 16.1821 68.1987 15.9819V15.9499C68.1987 15.6218 68.0858 15.3682 67.8599 15.1892C67.6341 15.0103 67.3294 14.9208 66.9459 14.9208C66.5325 14.9208 66.2001 15.0103 65.9487 15.1892C65.6973 15.3682 65.5375 15.6154 65.4693 15.9307L62.5865 15.8284C62.6717 15.2319 62.8912 14.6992 63.2449 14.2304C63.6028 13.7574 64.0929 13.3867 64.7151 13.1182C65.3415 12.8455 66.0936 12.7091 66.9714 12.7091C67.5979 12.7091 68.1753 12.7837 68.7037 12.9328C69.2321 13.0777 69.6923 13.2908 70.0844 13.5721C70.4764 13.849 70.779 14.19 70.992 14.5948C71.2094 14.9996 71.318 15.462 71.318 15.9819V22.6552H68.3777V21.2873H68.301C68.1263 21.6196 67.9026 21.9009 67.6298 22.131C67.3614 22.3611 67.0439 22.5337 66.6774 22.6488C66.3152 22.7638 65.9061 22.8213 65.4501 22.8213ZM66.4153 20.7759C66.752 20.7759 67.0545 20.7077 67.323 20.5713C67.5957 20.435 67.8131 20.2475 67.975 20.0088C68.1369 19.7659 68.2179 19.4847 68.2179 19.1651V18.2319C68.1284 18.2787 68.0197 18.3213 67.8919 18.3597C67.7683 18.398 67.632 18.4343 67.4828 18.4684C67.3337 18.5025 67.1803 18.5323 67.0226 18.5579C66.8649 18.5834 66.7136 18.6069 66.5688 18.6282C66.2747 18.675 66.0233 18.7475 65.8145 18.8455C65.6099 18.9435 65.4523 19.0713 65.3415 19.229C65.2349 19.3824 65.1817 19.5657 65.1817 19.7787C65.1817 20.1026 65.2967 20.3498 65.5268 20.5202C65.7612 20.6907 66.0574 20.7759 66.4153 20.7759ZM77.5624 22.8405C76.5268 22.8405 75.6384 22.6275 74.8969 22.2013C74.1597 21.7752 73.5929 21.1829 73.1966 20.4243C72.8003 19.6615 72.6021 18.7794 72.6021 17.778C72.6021 16.7723 72.8003 15.8902 73.1966 15.1317C73.5972 14.3689 74.1661 13.7745 74.9033 13.3483C75.6447 12.9222 76.529 12.7091 77.556 12.7091C78.4636 12.7091 79.2541 12.8732 79.9274 13.2013C80.605 13.5294 81.1334 13.9939 81.5126 14.5948C81.8962 15.1914 82.0986 15.8924 82.1199 16.6978H79.1987C79.1391 16.1949 78.9686 15.8007 78.6874 15.5152C78.4104 15.2297 78.0482 15.087 77.6007 15.087C77.2385 15.087 76.921 15.1892 76.6483 15.3938C76.3756 15.5941 76.1625 15.8924 76.0091 16.2887C75.8599 16.6807 75.7854 17.1665 75.7854 17.7461C75.7854 18.3256 75.8599 18.8157 76.0091 19.2162C76.1625 19.6125 76.3756 19.913 76.6483 20.1175C76.921 20.3178 77.2385 20.4179 77.6007 20.4179C77.8905 20.4179 78.1462 20.3561 78.3678 20.2326C78.5936 20.109 78.779 19.9279 78.9239 19.6892C79.0688 19.4463 79.1604 19.1523 79.1987 18.8071H82.1199C82.0901 19.6168 81.8876 20.3242 81.5126 20.9293C81.1419 21.5344 80.6199 22.0053 79.9466 22.3419C79.2776 22.6743 78.4828 22.8405 77.5624 22.8405ZM86.2884 20.0792L86.3012 16.3526H86.7358L89.4972 12.837H93.0384L88.9347 17.8739H88.1101L86.2884 20.0792ZM83.4695 22.6552V9.56424H86.5952V22.6552H83.4695ZM89.5675 22.6552L86.9979 18.577L89.0561 16.359L93.179 22.6552H89.5675ZM97.5242 9.56424H101.443L104.766 17.6694H104.92L108.244 9.56424H112.162V22.6552H109.081V14.614H108.972L105.827 22.5721H103.859L100.714 14.5692H100.605V22.6552H97.5242V9.56424ZM113.457 12.1338V9.56424H124.522V12.1338H120.552V22.6552H117.433V12.1338H113.457ZM137.102 14.3071H133.906C133.864 13.979 133.776 13.6828 133.644 13.4186C133.512 13.1544 133.337 12.9286 133.12 12.7411C132.903 12.5536 132.645 12.4108 132.347 12.3128C132.053 12.2105 131.727 12.1594 131.369 12.1594C130.734 12.1594 130.186 12.315 129.726 12.626C129.27 12.9371 128.918 13.3867 128.671 13.9748C128.428 14.5628 128.307 15.2745 128.307 16.1097C128.307 16.979 128.43 17.7077 128.678 18.2958C128.929 18.8796 129.281 19.3206 129.732 19.6189C130.188 19.913 130.727 20.06 131.349 20.06C131.699 20.06 132.016 20.0152 132.302 19.9257C132.592 19.8363 132.845 19.7063 133.063 19.5358C133.284 19.3611 133.465 19.1502 133.606 18.903C133.751 18.6516 133.851 18.3682 133.906 18.0529L137.102 18.0721C137.047 18.6516 136.879 19.2226 136.597 19.7851C136.32 20.3476 135.939 20.8611 135.453 21.3256C134.967 21.7858 134.375 22.1523 133.676 22.425C132.982 22.6978 132.185 22.8341 131.286 22.8341C130.101 22.8341 129.04 22.5742 128.102 22.0543C127.169 21.5302 126.432 20.7674 125.891 19.7659C125.349 18.7645 125.079 17.5458 125.079 16.1097C125.079 14.6694 125.354 13.4485 125.903 12.4471C126.453 11.4456 127.197 10.685 128.134 10.1651C129.072 9.64521 130.122 9.38526 131.286 9.38526C132.078 9.38526 132.811 9.49606 133.484 9.71765C134.158 9.93498 134.75 10.2546 135.261 10.6765C135.773 11.0941 136.188 11.6076 136.508 12.2169C136.827 12.8263 137.026 13.523 137.102 14.3071ZM138.663 22.6552V9.56424H147.791V12.1338H141.827V14.8185H147.324V17.3945H141.827V20.0855H147.791V22.6552H138.663ZM151.318 11.6928C150.875 11.6928 150.496 11.5479 150.181 11.2581C149.865 10.9641 149.708 10.6104 149.708 10.1971C149.708 9.78796 149.865 9.43853 150.181 9.14876C150.496 8.85472 150.873 8.70771 151.312 8.70771C151.755 8.70771 152.132 8.85472 152.443 9.14876C152.759 9.43853 152.916 9.78796 152.916 10.1971C152.916 10.6104 152.759 10.9641 152.443 11.2581C152.132 11.5479 151.757 11.6928 151.318 11.6928Z" fill="white"/>
<path d="M26.7123 15.2433C26.2148 15.74 25.8338 16.3394 25.5965 16.9987C25.3592 17.6582 25.2713 18.3614 25.3392 19.0583L25.3156 19.0349C25.3854 19.8553 25.2738 20.6809 24.9888 21.4541C24.7039 22.2273 24.2523 22.9295 23.6656 23.5117C23.0789 24.0938 22.3712 24.542 21.5919 24.8246C20.8126 25.1074 19.9805 25.2181 19.1538 25.1488L19.1774 25.1722C18.1884 25.0809 17.1951 25.2944 16.3328 25.7838C15.4706 26.2731 14.7815 27.0143 14.3594 27.9066C13.9374 28.7988 13.8029 29.7983 13.9743 30.7692C14.1459 31.7399 14.6149 32.6346 15.3176 33.3312C16.0203 34.0277 16.9223 34.4923 17.9008 34.6615C18.8794 34.8309 19.8867 34.6964 20.7855 34.2769C21.6843 33.8572 22.4307 33.1729 22.9231 32.3169C23.4154 31.4609 23.6298 30.4752 23.5369 29.4939L23.5618 29.5173C23.492 28.697 23.6034 27.8714 23.8884 27.0981C24.1734 26.3249 24.6251 25.6228 25.2117 25.0406C25.7985 24.4585 26.5062 24.0103 27.2854 23.7276C28.0647 23.4449 28.8967 23.3342 29.7236 23.4035L29.6987 23.38C30.5065 23.452 31.3197 23.3206 32.0628 22.9979C32.8058 22.6751 33.4548 22.1714 33.9494 21.5336C34.444 20.8958 34.7685 20.1442 34.8925 19.3489C35.0165 18.5535 34.9362 17.74 34.6589 16.9835C34.3817 16.2271 33.9165 15.5524 33.3065 15.0219C32.6965 14.4914 31.9613 14.1223 31.1693 13.9488C30.3772 13.7753 29.5537 13.8029 28.7753 14.0292C27.9969 14.2555 27.2887 14.6731 26.7162 15.2433H26.7123Z" fill="#88FF3F"/>
<path d="M17.0283 22.1011L17.0034 22.0777C17.7061 22.1479 18.4157 22.0623 19.0811 21.8271C19.7464 21.5918 20.3508 21.213 20.8504 20.7176C21.3499 20.2223 21.7324 19.6229 21.9699 18.9629C22.2074 18.3029 22.2942 17.5989 22.224 16.9016L22.2489 16.925C22.1791 16.1046 22.2907 15.2791 22.5755 14.5058C22.8605 13.7326 23.3122 13.0304 23.8989 12.4482C24.4856 11.8662 25.1933 11.418 25.9725 11.1353C26.7519 10.8525 27.5838 10.7419 28.4107 10.8111L28.3858 10.7877C29.3749 10.8799 30.3685 10.667 31.2312 10.1783C32.094 9.68948 32.7837 8.94853 33.2064 8.0565C33.6291 7.16447 33.7641 6.16477 33.5932 5.19375C33.4223 4.22273 32.9537 3.32769 32.2511 2.63067C31.5487 1.93367 30.6466 1.46863 29.668 1.29902C28.6894 1.1294 27.6819 1.26344 26.7828 1.68286C25.8838 2.10228 25.1371 2.78667 24.6445 3.64268C24.1518 4.49868 23.9373 5.48463 24.0303 6.46603L24.0066 6.44128C24.0766 7.2617 23.9653 8.0874 23.6804 8.86072C23.3956 9.63403 22.9439 10.3363 22.3572 10.9186C21.7705 11.5007 21.0626 11.9489 20.2833 12.2315C19.5038 12.5141 18.6717 12.6246 17.8448 12.5552L17.8685 12.5799C17.1658 12.5097 16.456 12.5953 15.7907 12.8305C15.1255 13.0656 14.5211 13.4446 14.0215 13.94C13.5219 14.4353 13.1395 15.0347 12.9019 15.6947C12.6644 16.3547 12.5777 17.0587 12.6479 17.756L12.6243 17.7326C12.6938 18.5529 12.5821 19.3784 12.2971 20.1516C12.012 20.9246 11.5605 21.6268 10.9738 22.2088C10.3871 22.7909 9.67952 23.239 8.90036 23.5219C8.12119 23.8046 7.28922 23.9155 6.46247 23.8465L6.4861 23.8699C5.49701 23.7777 4.50335 23.9905 3.64063 24.4793C2.77793 24.9682 2.08817 25.709 1.66547 26.6011C1.24276 27.4932 1.10766 28.4928 1.27861 29.4638C1.44956 30.4348 1.91824 31.3299 2.62071 32.0269C3.32318 32.724 4.22524 33.189 5.20386 33.3585C6.18249 33.5281 7.19002 33.3941 8.08905 32.9747C8.98806 32.5553 9.73481 31.871 10.2274 31.015C10.7201 30.1588 10.9346 29.173 10.8416 28.1916L10.8666 28.215C10.7967 27.3946 10.9083 26.5691 11.1933 25.7958C11.4781 25.0226 11.9298 24.3204 12.5165 23.7382C13.1033 23.1561 13.8109 22.708 14.5901 22.4253C15.3695 22.1425 16.2015 22.0318 17.0283 22.1011Z" fill="#88FF3F"/>
<path d="M8.23046 19.4865C8.72799 18.99 9.10891 18.3906 9.34604 17.7312C9.58316 17.0717 9.67064 16.3684 9.60222 15.6715L9.62715 15.695C9.55731 14.8744 9.66884 14.0485 9.95397 13.2751C10.2391 12.5017 10.691 11.7994 11.278 11.2171C11.865 10.635 12.573 10.1869 13.3526 9.90433C14.1322 9.62175 14.9646 9.51143 15.7916 9.58108L15.7666 9.55764C16.7554 9.64955 17.7487 9.43661 18.611 8.94786C19.4733 8.45913 20.1626 7.71836 20.5851 6.82661C21.0076 5.93485 21.1425 4.93551 20.9716 3.96486C20.8007 2.9942 20.332 2.0995 19.6299 1.40274C18.9277 0.705989 18.0259 0.241105 17.0477 0.0714943C16.0695 -0.098129 15.0622 0.0357931 14.1636 0.454961C13.2648 0.874128 12.5182 1.55816 12.0257 2.41376C11.5331 3.26937 11.3184 4.25491 11.4111 5.23597L11.3875 5.21253C11.4573 6.0329 11.3457 6.85851 11.0608 7.63172C10.7758 8.40493 10.3242 9.10712 9.73751 9.68928C9.1508 10.2714 8.4431 10.7195 7.66383 11.0022C6.88456 11.285 6.0525 11.3957 5.2257 11.3264L5.24933 11.3499C4.44146 11.278 3.62836 11.4096 2.8854 11.7325C2.14245 12.0554 1.49365 12.5592 0.999142 13.1972C0.504637 13.835 0.180428 14.5866 0.0565363 15.3819C-0.0673426 16.1773 0.0131124 16.9908 0.290445 17.747C0.567778 18.5034 1.03304 19.178 1.64308 19.7083C2.25313 20.2388 2.98824 20.6078 3.78029 20.7813C4.57233 20.9547 5.39569 20.9269 6.17408 20.7007C6.95246 20.4743 7.66066 20.0568 8.23307 19.4865H8.23046Z" fill="#88FF3F"/>
</svg>
